<?xml version="1.0" encoding="UTF-8"?>
<svg xmlns="http://www.w3.org/2000/svg" width="1400" height="980" viewBox="0 0 1400 980">
  <defs>
    <linearGradient id="bg" x1="0" y1="0" x2="1" y2="1">
      <stop offset="0%" stop-color="#07111f" />
      <stop offset="100%" stop-color="#02060b" />
    </linearGradient>
  </defs>
  <rect width="100%" height="100%" fill="url(#bg)" />
  <text x="40" y="54" fill="#e6eef8" font-size="28" font-family="Consolas, 'Courier New', monospace">NAV R06-S03</text>
  <text x="40" y="82" fill="#88a3bf" font-size="15" font-family="Consolas, 'Courier New', monospace">TEST | In-Sector Systems 61 | Exit Systems 8 | Links 68</text>
  <line x1="588.85" y1="158.49" x2="629.77" y2="362.06" stroke="#f6bd60" stroke-width="2.60" stroke-opacity="0.74" stroke-dasharray="7 5" />
  <line x1="461.40" y1="164.27" x2="567.03" y2="428.00" stroke="#f6bd60" stroke-width="2.60" stroke-opacity="0.74" stroke-dasharray="7 5" />
  <line x1="429.64" y1="910.00" x2="555.82" y2="855.09" stroke="#f6bd60" stroke-width="2.60" stroke-opacity="0.74" stroke-dasharray="7 5" />
  <line x1="301.82" y1="208.71" x2="366.26" y2="268.05" stroke="#9ed8ff" stroke-width="2.10" stroke-opacity="0.74" stroke-dasharray="7 5" />
  <line x1="1028.55" y1="629.96" x2="1013.03" y2="555.86" stroke="#b7f0c7" stroke-width="1.40" stroke-opacity="0.88" />
  <line x1="956.56" y1="441.62" x2="866.03" y2="405.68" stroke="#b7f0c7" stroke-width="1.40" stroke-opacity="0.88" />
  <line x1="666.16" y1="569.12" x2="783.32" y2="556.26" stroke="#b7f0c7" stroke-width="1.40" stroke-opacity="0.88" />
  <line x1="555.82" y1="855.09" x2="450.19" y2="832.63" stroke="#b7f0c7" stroke-width="1.40" stroke-opacity="0.88" />
  <line x1="555.82" y1="855.09" x2="661.30" y2="863.56" stroke="#b7f0c7" stroke-width="1.40" stroke-opacity="0.88" />
  <line x1="775.57" y1="710.45" x2="750.40" y2="630.11" stroke="#b7f0c7" stroke-width="1.40" stroke-opacity="0.88" />
  <line x1="705.20" y1="794.38" x2="598.94" y2="774.78" stroke="#b7f0c7" stroke-width="1.40" stroke-opacity="0.88" />
  <line x1="705.20" y1="794.38" x2="810.54" y2="788.52" stroke="#b7f0c7" stroke-width="1.40" stroke-opacity="0.88" />
  <line x1="750.40" y1="630.11" x2="783.32" y2="556.26" stroke="#b7f0c7" stroke-width="1.40" stroke-opacity="0.88" />
  <line x1="866.03" y1="405.68" x2="793.48" y2="301.90" stroke="#b7f0c7" stroke-width="1.40" stroke-opacity="0.88" />
  <line x1="887.45" y1="505.83" x2="866.03" y2="405.68" stroke="#b7f0c7" stroke-width="1.40" stroke-opacity="0.88" />
  <line x1="887.45" y1="505.83" x2="1013.03" y2="555.86" stroke="#b7f0c7" stroke-width="1.40" stroke-opacity="0.88" />
  <line x1="887.45" y1="505.83" x2="783.32" y2="556.26" stroke="#b7f0c7" stroke-width="1.40" stroke-opacity="0.88" />
  <line x1="450.19" y1="832.63" x2="193.90" y2="774.89" stroke="#b7f0c7" stroke-width="1.40" stroke-opacity="0.88" />
  <line x1="450.19" y1="832.63" x2="345.29" y2="851.19" stroke="#b7f0c7" stroke-width="1.40" stroke-opacity="0.88" />
  <line x1="442.24" y1="202.46" x2="502.83" y2="257.36" stroke="#b7f0c7" stroke-width="1.40" stroke-opacity="0.88" />
  <line x1="502.83" y1="257.36" x2="793.48" y2="301.90" stroke="#b7f0c7" stroke-width="1.40" stroke-opacity="0.88" />
  <line x1="746.78" y1="353.35" x2="864.42" y2="191.63" stroke="#b7f0c7" stroke-width="1.40" stroke-opacity="0.88" />
  <line x1="746.78" y1="353.35" x2="521.18" y2="510.44" stroke="#b7f0c7" stroke-width="1.40" stroke-opacity="0.88" />
  <line x1="887.34" y1="258.28" x2="793.48" y2="301.90" stroke="#b7f0c7" stroke-width="1.40" stroke-opacity="0.88" />
  <line x1="887.34" y1="258.28" x2="864.42" y2="191.63" stroke="#b7f0c7" stroke-width="1.40" stroke-opacity="0.88" />
  <line x1="557.02" y1="615.83" x2="480.73" y2="439.18" stroke="#b7f0c7" stroke-width="1.40" stroke-opacity="0.88" />
  <line x1="557.02" y1="615.83" x2="670.03" y2="698.13" stroke="#b7f0c7" stroke-width="1.40" stroke-opacity="0.88" />
  <line x1="557.02" y1="615.83" x2="598.94" y2="774.78" stroke="#b7f0c7" stroke-width="1.40" stroke-opacity="0.88" />
  <line x1="135.51" y1="642.45" x2="267.71" y2="651.04" stroke="#b7f0c7" stroke-width="1.40" stroke-opacity="0.88" />
  <line x1="366.26" y1="268.05" x2="502.83" y2="257.36" stroke="#b7f0c7" stroke-width="1.40" stroke-opacity="0.88" />
  <line x1="366.26" y1="268.05" x2="229.69" y2="278.75" stroke="#b7f0c7" stroke-width="1.40" stroke-opacity="0.88" />
  <line x1="646.14" y1="638.91" x2="588.30" y2="907.69" stroke="#9ed8ff" stroke-width="2.10" stroke-opacity="0.74" stroke-dasharray="7 5" />
  <line x1="646.14" y1="638.91" x2="750.40" y2="630.11" stroke="#b7f0c7" stroke-width="1.40" stroke-opacity="0.88" />
  <line x1="400.46" y1="727.24" x2="598.94" y2="774.78" stroke="#b7f0c7" stroke-width="1.40" stroke-opacity="0.88" />
  <line x1="400.46" y1="727.24" x2="267.71" y2="651.04" stroke="#b7f0c7" stroke-width="1.40" stroke-opacity="0.88" />
  <line x1="400.46" y1="727.24" x2="568.83" y2="717.67" stroke="#b7f0c7" stroke-width="1.40" stroke-opacity="0.88" />
  <line x1="400.46" y1="727.24" x2="292.94" y2="732.59" stroke="#b7f0c7" stroke-width="1.40" stroke-opacity="0.88" />
  <line x1="521.18" y1="510.44" x2="193.90" y2="774.89" stroke="#b7f0c7" stroke-width="1.40" stroke-opacity="0.88" />
  <line x1="240.17" y1="869.69" x2="345.29" y2="851.19" stroke="#b7f0c7" stroke-width="1.40" stroke-opacity="0.88" />
  <line x1="95.20" y1="744.07" x2="193.90" y2="774.89" stroke="#b7f0c7" stroke-width="1.40" stroke-opacity="0.88" />
  <line x1="461.71" y1="684.87" x2="568.83" y2="717.67" stroke="#b7f0c7" stroke-width="1.40" stroke-opacity="0.88" />
  <line x1="698.05" y1="407.59" x2="480.73" y2="439.18" stroke="#b7f0c7" stroke-width="1.40" stroke-opacity="0.88" />
  <line x1="681.12" y1="191.63" x2="864.42" y2="191.63" stroke="#b7f0c7" stroke-width="1.40" stroke-opacity="0.88" />
  <line x1="681.12" y1="191.63" x2="616.99" y2="254.58" stroke="#b7f0c7" stroke-width="1.40" stroke-opacity="0.88" />
  <line x1="268.93" y1="583.83" x2="267.71" y2="651.04" stroke="#b7f0c7" stroke-width="1.40" stroke-opacity="0.88" />
  <line x1="567.03" y1="428.00" x2="521.18" y2="510.44" stroke="#b7f0c7" stroke-width="1.40" stroke-opacity="0.88" />
  <line x1="567.03" y1="428.00" x2="629.77" y2="362.06" stroke="#b7f0c7" stroke-width="1.40" stroke-opacity="0.88" />
  <line x1="567.03" y1="428.00" x2="480.73" y2="439.18" stroke="#b7f0c7" stroke-width="1.40" stroke-opacity="0.88" />
  <line x1="778.64" y1="191.63" x2="738.12" y2="245.17" stroke="#b7f0c7" stroke-width="1.40" stroke-opacity="0.88" />
  <line x1="277.03" y1="326.83" x2="229.69" y2="278.75" stroke="#b7f0c7" stroke-width="1.40" stroke-opacity="0.88" />
  <line x1="689.35" y1="300.13" x2="809.57" y2="154.00" stroke="#9ed8ff" stroke-width="2.10" stroke-opacity="0.74" stroke-dasharray="7 5" />
  <line x1="689.35" y1="300.13" x2="629.77" y2="362.06" stroke="#b7f0c7" stroke-width="1.40" stroke-opacity="0.88" />
  <line x1="689.35" y1="300.13" x2="738.12" y2="245.17" stroke="#b7f0c7" stroke-width="1.40" stroke-opacity="0.88" />
  <line x1="620.56" y1="489.88" x2="521.18" y2="510.44" stroke="#b7f0c7" stroke-width="1.40" stroke-opacity="0.88" />
  <line x1="322.47" y1="785.65" x2="292.94" y2="732.59" stroke="#b7f0c7" stroke-width="1.40" stroke-opacity="0.88" />
  <line x1="936.34" y1="350.75" x2="1054.87" y2="265.65" stroke="#9ed8ff" stroke-width="2.10" stroke-opacity="0.74" stroke-dasharray="7 5" />
  <line x1="936.34" y1="350.75" x2="698.05" y2="407.59" stroke="#b7f0c7" stroke-width="1.40" stroke-opacity="0.88" />
  <line x1="936.34" y1="350.75" x2="1032.80" y2="380.31" stroke="#b7f0c7" stroke-width="1.40" stroke-opacity="0.88" />
  <line x1="893.71" y1="720.32" x2="568.83" y2="717.67" stroke="#b7f0c7" stroke-width="1.40" stroke-opacity="0.88" />
  <line x1="893.71" y1="720.32" x2="1026.75" y2="691.71" stroke="#b7f0c7" stroke-width="1.40" stroke-opacity="0.88" />
  <line x1="893.71" y1="720.32" x2="909.86" y2="656.94" stroke="#b7f0c7" stroke-width="1.40" stroke-opacity="0.88" />
  <line x1="1174.65" y1="763.84" x2="1155.52" y2="693.52" stroke="#b7f0c7" stroke-width="1.40" stroke-opacity="0.88" />
  <line x1="1136.39" y1="623.20" x2="1264.48" y2="644.65" stroke="#f6bd60" stroke-width="2.60" stroke-opacity="0.74" stroke-dasharray="7 5" />
  <line x1="1136.39" y1="623.20" x2="1026.75" y2="691.71" stroke="#b7f0c7" stroke-width="1.40" stroke-opacity="0.88" />
  <line x1="1136.39" y1="623.20" x2="1155.52" y2="693.52" stroke="#b7f0c7" stroke-width="1.40" stroke-opacity="0.88" />
  <line x1="925.66" y1="593.48" x2="909.86" y2="656.94" stroke="#b7f0c7" stroke-width="1.40" stroke-opacity="0.88" />
  <line x1="1129.22" y1="410.61" x2="1032.80" y2="380.31" stroke="#b7f0c7" stroke-width="1.40" stroke-opacity="0.88" />
  <line x1="1129.22" y1="410.61" x2="1225.61" y2="441.21" stroke="#b7f0c7" stroke-width="1.40" stroke-opacity="0.88" />
  <rect x="975.70" y="619.66" width="105.70" height="20.60" rx="6.50" fill="#607080" fill-opacity="0.10" />
  <rect x="977.50" y="621.46" width="102.10" height="17.00" rx="5.00" fill="#1f2831" fill-opacity="0.92" stroke="#aeb9c5" stroke-width="1.00" />
  <text x="1028.55" y="633.21" fill="#f5f7fa" font-size="10.0" text-anchor="middle" font-family="Consolas, 'Courier New', monospace">K00001750-4T32</text>
  <rect x="903.71" y="431.32" width="105.70" height="20.60" rx="6.50" fill="#607080" fill-opacity="0.10" />
  <rect x="905.51" y="433.12" width="102.10" height="17.00" rx="5.00" fill="#1f2831" fill-opacity="0.92" stroke="#aeb9c5" stroke-width="1.00" />
  <text x="956.56" y="444.87" fill="#f5f7fa" font-size="10.0" text-anchor="middle" font-family="Consolas, 'Courier New', monospace">A00001751-9U51</text>
  <rect x="613.31" y="558.82" width="105.70" height="20.60" rx="6.50" fill="#607080" fill-opacity="0.10" />
  <rect x="615.11" y="560.62" width="102.10" height="17.00" rx="5.00" fill="#1f2831" fill-opacity="0.92" stroke="#aeb9c5" stroke-width="1.00" />
  <text x="666.16" y="572.37" fill="#f5f7fa" font-size="10.0" text-anchor="middle" font-family="Consolas, 'Courier New', monospace">M00001752-6V61</text>
  <rect x="502.17" y="842.49" width="107.30" height="25.20" rx="7.50" fill="#d9a441" fill-opacity="0.10" />
  <rect x="504.77" y="845.09" width="102.10" height="20.00" rx="6.00" fill="#1f2831" fill-opacity="0.92" stroke="#d9a441" stroke-width="1.40" />
  <text x="555.82" y="858.34" fill="#f5f7fa" font-size="10.0" text-anchor="middle" font-family="Consolas, 'Courier New', monospace">M00001753-9W68</text>
  <rect x="722.72" y="700.15" width="105.70" height="20.60" rx="6.50" fill="#607080" fill-opacity="0.10" />
  <rect x="724.52" y="701.95" width="102.10" height="17.00" rx="5.00" fill="#1f2831" fill-opacity="0.92" stroke="#aeb9c5" stroke-width="1.00" />
  <text x="775.57" y="713.70" fill="#f5f7fa" font-size="10.0" text-anchor="middle" font-family="Consolas, 'Courier New', monospace">M00001754-6X16</text>
  <rect x="960.18" y="545.56" width="105.70" height="20.60" rx="6.50" fill="#607080" fill-opacity="0.10" />
  <rect x="961.98" y="547.36" width="102.10" height="17.00" rx="5.00" fill="#1f2831" fill-opacity="0.92" stroke="#aeb9c5" stroke-width="1.00" />
  <text x="1013.03" y="559.11" fill="#f5f7fa" font-size="10.0" text-anchor="middle" font-family="Consolas, 'Courier New', monospace">M00001755-8Y72</text>
  <rect x="652.35" y="784.08" width="105.70" height="20.60" rx="6.50" fill="#607080" fill-opacity="0.10" />
  <rect x="654.15" y="785.88" width="102.10" height="17.00" rx="5.00" fill="#1f2831" fill-opacity="0.92" stroke="#aeb9c5" stroke-width="1.00" />
  <text x="705.20" y="797.63" fill="#f5f7fa" font-size="10.0" text-anchor="middle" font-family="Consolas, 'Courier New', monospace">G00001756-7Z25</text>
  <rect x="608.45" y="853.26" width="105.70" height="20.60" rx="6.50" fill="#607080" fill-opacity="0.10" />
  <rect x="610.25" y="855.06" width="102.10" height="17.00" rx="5.00" fill="#1f2831" fill-opacity="0.92" stroke="#aeb9c5" stroke-width="1.00" />
  <text x="661.30" y="866.81" fill="#f5f7fa" font-size="10.0" text-anchor="middle" font-family="Consolas, 'Courier New', monospace">M00001757-4A17</text>
  <rect x="757.69" y="778.22" width="105.70" height="20.60" rx="6.50" fill="#607080" fill-opacity="0.10" />
  <rect x="759.49" y="780.02" width="102.10" height="17.00" rx="5.00" fill="#1f2831" fill-opacity="0.92" stroke="#aeb9c5" stroke-width="1.00" />
  <text x="810.54" y="791.77" fill="#f5f7fa" font-size="10.0" text-anchor="middle" font-family="Consolas, 'Courier New', monospace">K00001758-9B93</text>
  <rect x="740.63" y="291.60" width="105.70" height="20.60" rx="6.50" fill="#607080" fill-opacity="0.10" />
  <rect x="742.43" y="293.40" width="102.10" height="17.00" rx="5.00" fill="#1f2831" fill-opacity="0.92" stroke="#aeb9c5" stroke-width="1.00" />
  <text x="793.48" y="305.15" fill="#f5f7fa" font-size="10.0" text-anchor="middle" font-family="Consolas, 'Courier New', monospace">F00001759-8C33</text>
  <rect x="697.55" y="619.81" width="105.70" height="20.60" rx="6.50" fill="#607080" fill-opacity="0.10" />
  <rect x="699.35" y="621.61" width="102.10" height="17.00" rx="5.00" fill="#1f2831" fill-opacity="0.92" stroke="#aeb9c5" stroke-width="1.00" />
  <text x="750.40" y="633.36" fill="#f5f7fa" font-size="10.0" text-anchor="middle" font-family="Consolas, 'Courier New', monospace">K00001760-9U99</text>
  <rect x="813.18" y="395.38" width="105.70" height="20.60" rx="6.50" fill="#607080" fill-opacity="0.10" />
  <rect x="814.98" y="397.18" width="102.10" height="17.00" rx="5.00" fill="#1f2831" fill-opacity="0.92" stroke="#aeb9c5" stroke-width="1.00" />
  <text x="866.03" y="408.93" fill="#f5f7fa" font-size="10.0" text-anchor="middle" font-family="Consolas, 'Courier New', monospace">M00001761-8V55</text>
  <rect x="831.52" y="495.53" width="111.85" height="20.60" rx="6.50" fill="#607080" fill-opacity="0.10" />
  <rect x="833.32" y="497.33" width="108.25" height="17.00" rx="5.00" fill="#1f2831" fill-opacity="0.92" stroke="#aeb9c5" stroke-width="1.00" />
  <text x="887.45" y="509.08" fill="#f5f7fa" font-size="10.0" text-anchor="middle" font-family="Consolas, 'Courier New', monospace">M00001762-9W123</text>
  <rect x="730.47" y="545.96" width="105.70" height="20.60" rx="6.50" fill="#607080" fill-opacity="0.10" />
  <rect x="732.27" y="547.76" width="102.10" height="17.00" rx="5.00" fill="#1f2831" fill-opacity="0.92" stroke="#aeb9c5" stroke-width="1.00" />
  <text x="783.32" y="559.51" fill="#f5f7fa" font-size="10.0" text-anchor="middle" font-family="Consolas, 'Courier New', monospace">M00001763-5X33</text>
  <rect x="397.34" y="822.33" width="105.70" height="20.60" rx="6.50" fill="#607080" fill-opacity="0.10" />
  <rect x="399.14" y="824.13" width="102.10" height="17.00" rx="5.00" fill="#1f2831" fill-opacity="0.92" stroke="#aeb9c5" stroke-width="1.00" />
  <text x="450.19" y="835.88" fill="#f5f7fa" font-size="10.0" text-anchor="middle" font-family="Consolas, 'Courier New', monospace">M00001764-7Y54</text>
  <rect x="392.46" y="192.16" width="99.55" height="20.60" rx="6.50" fill="#607080" fill-opacity="0.10" />
  <rect x="394.26" y="193.96" width="95.95" height="17.00" rx="5.00" fill="#1f2831" fill-opacity="0.92" stroke="#aeb9c5" stroke-width="1.00" />
  <text x="442.24" y="205.71" fill="#f5f7fa" font-size="10.0" text-anchor="middle" font-family="Consolas, 'Courier New', monospace">M00001765-4Z2</text>
  <rect x="449.98" y="247.06" width="105.70" height="20.60" rx="6.50" fill="#607080" fill-opacity="0.10" />
  <rect x="451.78" y="248.86" width="102.10" height="17.00" rx="5.00" fill="#1f2831" fill-opacity="0.92" stroke="#aeb9c5" stroke-width="1.00" />
  <text x="502.83" y="260.61" fill="#f5f7fa" font-size="10.0" text-anchor="middle" font-family="Consolas, 'Courier New', monospace">M00001766-7A16</text>
  <rect x="693.93" y="343.05" width="105.70" height="20.60" rx="6.50" fill="#607080" fill-opacity="0.10" />
  <rect x="695.73" y="344.85" width="102.10" height="17.00" rx="5.00" fill="#1f2831" fill-opacity="0.92" stroke="#aeb9c5" stroke-width="1.00" />
  <text x="746.78" y="356.60" fill="#f5f7fa" font-size="10.0" text-anchor="middle" font-family="Consolas, 'Courier New', monospace">K00001767-4B30</text>
  <rect x="292.44" y="840.89" width="105.70" height="20.60" rx="6.50" fill="#607080" fill-opacity="0.10" />
  <rect x="294.24" y="842.69" width="102.10" height="17.00" rx="5.00" fill="#1f2831" fill-opacity="0.92" stroke="#aeb9c5" stroke-width="1.00" />
  <text x="345.29" y="854.44" fill="#f5f7fa" font-size="10.0" text-anchor="middle" font-family="Consolas, 'Courier New', monospace">G00001768-6C51</text>
  <rect x="834.49" y="247.98" width="105.70" height="20.60" rx="6.50" fill="#607080" fill-opacity="0.10" />
  <rect x="836.29" y="249.78" width="102.10" height="17.00" rx="5.00" fill="#1f2831" fill-opacity="0.92" stroke="#aeb9c5" stroke-width="1.00" />
  <text x="887.34" y="261.53" fill="#f5f7fa" font-size="10.0" text-anchor="middle" font-family="Consolas, 'Courier New', monospace">G00001769-6D49</text>
  <rect x="546.09" y="764.48" width="105.70" height="20.60" rx="6.50" fill="#607080" fill-opacity="0.10" />
  <rect x="547.89" y="766.28" width="102.10" height="17.00" rx="5.00" fill="#1f2831" fill-opacity="0.92" stroke="#aeb9c5" stroke-width="1.00" />
  <text x="598.94" y="778.03" fill="#f5f7fa" font-size="10.0" text-anchor="middle" font-family="Consolas, 'Courier New', monospace">M00001770-9V56</text>
  <rect x="504.17" y="605.53" width="105.70" height="20.60" rx="6.50" fill="#607080" fill-opacity="0.10" />
  <rect x="505.97" y="607.33" width="102.10" height="17.00" rx="5.00" fill="#1f2831" fill-opacity="0.92" stroke="#aeb9c5" stroke-width="1.00" />
  <text x="557.02" y="619.08" fill="#f5f7fa" font-size="10.0" text-anchor="middle" font-family="Consolas, 'Courier New', monospace">M00001771-6W28</text>
  <rect x="82.66" y="632.15" width="105.70" height="20.60" rx="6.50" fill="#607080" fill-opacity="0.10" />
  <rect x="84.46" y="633.95" width="102.10" height="17.00" rx="5.00" fill="#1f2831" fill-opacity="0.92" stroke="#aeb9c5" stroke-width="1.00" />
  <text x="135.51" y="645.70" fill="#f5f7fa" font-size="10.0" text-anchor="middle" font-family="Consolas, 'Courier New', monospace">G00001772-4X13</text>
  <rect x="214.86" y="640.74" width="105.70" height="20.60" rx="6.50" fill="#607080" fill-opacity="0.10" />
  <rect x="216.66" y="642.54" width="102.10" height="17.00" rx="5.00" fill="#1f2831" fill-opacity="0.92" stroke="#aeb9c5" stroke-width="1.00" />
  <text x="267.71" y="654.29" fill="#f5f7fa" font-size="10.0" text-anchor="middle" font-family="Consolas, 'Courier New', monospace">K00001773-8Y82</text>
  <rect x="313.01" y="256.60" width="106.50" height="22.90" rx="6.50" fill="#78bddd" fill-opacity="0.10" />
  <rect x="315.21" y="258.80" width="102.10" height="18.50" rx="5.00" fill="#1f2831" fill-opacity="0.92" stroke="#78bddd" stroke-width="1.20" />
  <text x="366.26" y="271.30" fill="#f5f7fa" font-size="10.0" text-anchor="middle" font-family="Consolas, 'Courier New', monospace">M00001774-6Z29</text>
  <rect x="137.98" y="764.59" width="111.85" height="20.60" rx="6.50" fill="#607080" fill-opacity="0.10" />
  <rect x="139.78" y="766.39" width="108.25" height="17.00" rx="5.00" fill="#1f2831" fill-opacity="0.92" stroke="#aeb9c5" stroke-width="1.00" />
  <text x="193.90" y="778.14" fill="#f5f7fa" font-size="10.0" text-anchor="middle" font-family="Consolas, 'Courier New', monospace">M00001775-7A109</text>
  <rect x="811.57" y="181.33" width="105.70" height="20.60" rx="6.50" fill="#607080" fill-opacity="0.10" />
  <rect x="813.37" y="183.13" width="102.10" height="17.00" rx="5.00" fill="#1f2831" fill-opacity="0.92" stroke="#aeb9c5" stroke-width="1.00" />
  <text x="864.42" y="194.88" fill="#f5f7fa" font-size="10.0" text-anchor="middle" font-family="Consolas, 'Courier New', monospace">M00001776-7B19</text>
  <rect x="589.82" y="627.46" width="112.65" height="22.90" rx="6.50" fill="#78bddd" fill-opacity="0.10" />
  <rect x="592.02" y="629.66" width="108.25" height="18.50" rx="5.00" fill="#1f2831" fill-opacity="0.92" stroke="#78bddd" stroke-width="1.20" />
  <text x="646.14" y="642.16" fill="#f5f7fa" font-size="10.0" text-anchor="middle" font-family="Consolas, 'Courier New', monospace">M00001777-9C108</text>
  <rect x="347.61" y="716.94" width="105.70" height="20.60" rx="6.50" fill="#607080" fill-opacity="0.10" />
  <rect x="349.41" y="718.74" width="102.10" height="17.00" rx="5.00" fill="#1f2831" fill-opacity="0.92" stroke="#aeb9c5" stroke-width="1.00" />
  <text x="400.46" y="730.49" fill="#f5f7fa" font-size="10.0" text-anchor="middle" font-family="Consolas, 'Courier New', monospace">M00001778-5D42</text>
  <rect x="614.10" y="687.83" width="111.85" height="20.60" rx="6.50" fill="#607080" fill-opacity="0.10" />
  <rect x="615.90" y="689.63" width="108.25" height="17.00" rx="5.00" fill="#1f2831" fill-opacity="0.92" stroke="#aeb9c5" stroke-width="1.00" />
  <text x="670.03" y="701.38" fill="#f5f7fa" font-size="10.0" text-anchor="middle" font-family="Consolas, 'Courier New', monospace">K00001779-9E115</text>
  <rect x="468.33" y="500.14" width="105.70" height="20.60" rx="6.50" fill="#607080" fill-opacity="0.10" />
  <rect x="470.13" y="501.94" width="102.10" height="17.00" rx="5.00" fill="#1f2831" fill-opacity="0.92" stroke="#aeb9c5" stroke-width="1.00" />
  <text x="521.18" y="513.69" fill="#f5f7fa" font-size="10.0" text-anchor="middle" font-family="Consolas, 'Courier New', monospace">M00001780-9W87</text>
  <rect x="187.32" y="859.39" width="105.70" height="20.60" rx="6.50" fill="#607080" fill-opacity="0.10" />
  <rect x="189.12" y="861.19" width="102.10" height="17.00" rx="5.00" fill="#1f2831" fill-opacity="0.92" stroke="#aeb9c5" stroke-width="1.00" />
  <text x="240.17" y="872.94" fill="#f5f7fa" font-size="10.0" text-anchor="middle" font-family="Consolas, 'Courier New', monospace">M00001781-7X43</text>
  <rect x="176.84" y="268.45" width="105.70" height="20.60" rx="6.50" fill="#607080" fill-opacity="0.10" />
  <rect x="178.64" y="270.25" width="102.10" height="17.00" rx="5.00" fill="#1f2831" fill-opacity="0.92" stroke="#aeb9c5" stroke-width="1.00" />
  <text x="229.69" y="282.00" fill="#f5f7fa" font-size="10.0" text-anchor="middle" font-family="Consolas, 'Courier New', monospace">M00001782-9Y66</text>
  <rect x="42.35" y="733.77" width="105.70" height="20.60" rx="6.50" fill="#607080" fill-opacity="0.10" />
  <rect x="44.15" y="735.57" width="102.10" height="17.00" rx="5.00" fill="#1f2831" fill-opacity="0.92" stroke="#aeb9c5" stroke-width="1.00" />
  <text x="95.20" y="747.32" fill="#f5f7fa" font-size="10.0" text-anchor="middle" font-family="Consolas, 'Courier New', monospace">M00001783-5Z14</text>
  <rect x="427.88" y="428.88" width="105.70" height="20.60" rx="6.50" fill="#607080" fill-opacity="0.10" />
  <rect x="429.68" y="430.68" width="102.10" height="17.00" rx="5.00" fill="#1f2831" fill-opacity="0.92" stroke="#aeb9c5" stroke-width="1.00" />
  <text x="480.73" y="442.43" fill="#f5f7fa" font-size="10.0" text-anchor="middle" font-family="Consolas, 'Courier New', monospace">G00001784-4A23</text>
  <rect x="408.86" y="674.57" width="105.70" height="20.60" rx="6.50" fill="#607080" fill-opacity="0.10" />
  <rect x="410.66" y="676.37" width="102.10" height="17.00" rx="5.00" fill="#1f2831" fill-opacity="0.92" stroke="#aeb9c5" stroke-width="1.00" />
  <text x="461.71" y="688.12" fill="#f5f7fa" font-size="10.0" text-anchor="middle" font-family="Consolas, 'Courier New', monospace">M00001785-4B28</text>
  <rect x="515.98" y="707.37" width="105.70" height="20.60" rx="6.50" fill="#607080" fill-opacity="0.10" />
  <rect x="517.78" y="709.17" width="102.10" height="17.00" rx="5.00" fill="#1f2831" fill-opacity="0.92" stroke="#aeb9c5" stroke-width="1.00" />
  <text x="568.83" y="720.92" fill="#f5f7fa" font-size="10.0" text-anchor="middle" font-family="Consolas, 'Courier New', monospace">M00001786-4C24</text>
  <rect x="645.20" y="397.29" width="105.70" height="20.60" rx="6.50" fill="#607080" fill-opacity="0.10" />
  <rect x="647.00" y="399.09" width="102.10" height="17.00" rx="5.00" fill="#1f2831" fill-opacity="0.92" stroke="#aeb9c5" stroke-width="1.00" />
  <text x="698.05" y="410.84" fill="#f5f7fa" font-size="10.0" text-anchor="middle" font-family="Consolas, 'Courier New', monospace">M00001787-5D40</text>
  <rect x="628.27" y="181.33" width="105.70" height="20.60" rx="6.50" fill="#607080" fill-opacity="0.10" />
  <rect x="630.07" y="183.13" width="102.10" height="17.00" rx="5.00" fill="#1f2831" fill-opacity="0.92" stroke="#aeb9c5" stroke-width="1.00" />
  <text x="681.12" y="194.88" fill="#f5f7fa" font-size="10.0" text-anchor="middle" font-family="Consolas, 'Courier New', monospace">M00001788-4E46</text>
  <rect x="216.08" y="573.53" width="105.70" height="20.60" rx="6.50" fill="#607080" fill-opacity="0.10" />
  <rect x="217.88" y="575.33" width="102.10" height="17.00" rx="5.00" fill="#1f2831" fill-opacity="0.92" stroke="#aeb9c5" stroke-width="1.00" />
  <text x="268.93" y="587.08" fill="#f5f7fa" font-size="10.0" text-anchor="middle" font-family="Consolas, 'Courier New', monospace">M00001789-6F42</text>
  <rect x="240.09" y="722.29" width="105.70" height="20.60" rx="6.50" fill="#607080" fill-opacity="0.10" />
  <rect x="241.89" y="724.09" width="102.10" height="17.00" rx="5.00" fill="#1f2831" fill-opacity="0.92" stroke="#aeb9c5" stroke-width="1.00" />
  <text x="292.94" y="735.84" fill="#f5f7fa" font-size="10.0" text-anchor="middle" font-family="Consolas, 'Courier New', monospace">M00001790-5X30</text>
  <rect x="510.30" y="415.40" width="113.45" height="25.20" rx="7.50" fill="#d9a441" fill-opacity="0.10" />
  <rect x="512.90" y="418.00" width="108.25" height="20.00" rx="6.00" fill="#1f2831" fill-opacity="0.92" stroke="#d9a441" stroke-width="1.40" />
  <text x="567.03" y="431.25" fill="#f5f7fa" font-size="10.0" text-anchor="middle" font-family="Consolas, 'Courier New', monospace">M00001791-10Y32</text>
  <rect x="725.79" y="181.33" width="105.70" height="20.60" rx="6.50" fill="#607080" fill-opacity="0.10" />
  <rect x="727.59" y="183.13" width="102.10" height="17.00" rx="5.00" fill="#1f2831" fill-opacity="0.92" stroke="#aeb9c5" stroke-width="1.00" />
  <text x="778.64" y="194.88" fill="#f5f7fa" font-size="10.0" text-anchor="middle" font-family="Consolas, 'Courier New', monospace">M00001792-4Z50</text>
  <rect x="224.18" y="316.53" width="105.70" height="20.60" rx="6.50" fill="#607080" fill-opacity="0.10" />
  <rect x="225.98" y="318.33" width="102.10" height="17.00" rx="5.00" fill="#1f2831" fill-opacity="0.92" stroke="#aeb9c5" stroke-width="1.00" />
  <text x="277.03" y="330.08" fill="#f5f7fa" font-size="10.0" text-anchor="middle" font-family="Consolas, 'Courier New', monospace">M00001793-5A31</text>
  <rect x="633.03" y="288.68" width="112.65" height="22.90" rx="6.50" fill="#78bddd" fill-opacity="0.10" />
  <rect x="635.23" y="290.88" width="108.25" height="18.50" rx="5.00" fill="#1f2831" fill-opacity="0.92" stroke="#78bddd" stroke-width="1.20" />
  <text x="689.35" y="303.38" fill="#f5f7fa" font-size="10.0" text-anchor="middle" font-family="Consolas, 'Courier New', monospace">G00001794-10B52</text>
  <rect x="573.05" y="349.46" width="113.45" height="25.20" rx="7.50" fill="#d9a441" fill-opacity="0.10" />
  <rect x="575.65" y="352.06" width="108.25" height="20.00" rx="6.00" fill="#1f2831" fill-opacity="0.92" stroke="#d9a441" stroke-width="1.40" />
  <text x="629.77" y="365.31" fill="#f5f7fa" font-size="10.0" text-anchor="middle" font-family="Consolas, 'Courier New', monospace">M00001795-8C120</text>
  <rect x="567.71" y="479.58" width="105.70" height="20.60" rx="6.50" fill="#607080" fill-opacity="0.10" />
  <rect x="569.51" y="481.38" width="102.10" height="17.00" rx="5.00" fill="#1f2831" fill-opacity="0.92" stroke="#aeb9c5" stroke-width="1.00" />
  <text x="620.56" y="493.13" fill="#f5f7fa" font-size="10.0" text-anchor="middle" font-family="Consolas, 'Courier New', monospace">M00001796-6D38</text>
  <rect x="1102.67" y="683.22" width="105.70" height="20.60" rx="6.50" fill="#607080" fill-opacity="0.10" />
  <rect x="1104.47" y="685.02" width="102.10" height="17.00" rx="5.00" fill="#1f2831" fill-opacity="0.92" stroke="#aeb9c5" stroke-width="1.00" />
  <text x="1155.52" y="696.77" fill="#f5f7fa" font-size="10.0" text-anchor="middle" font-family="Consolas, 'Courier New', monospace">M00001797-8E59</text>
  <rect x="269.62" y="775.35" width="105.70" height="20.60" rx="6.50" fill="#607080" fill-opacity="0.10" />
  <rect x="271.42" y="777.15" width="102.10" height="17.00" rx="5.00" fill="#1f2831" fill-opacity="0.92" stroke="#aeb9c5" stroke-width="1.00" />
  <text x="322.47" y="788.90" fill="#f5f7fa" font-size="10.0" text-anchor="middle" font-family="Consolas, 'Courier New', monospace">M00001798-4F25</text>
  <rect x="685.27" y="234.87" width="105.70" height="20.60" rx="6.50" fill="#607080" fill-opacity="0.10" />
  <rect x="687.07" y="236.67" width="102.10" height="17.00" rx="5.00" fill="#1f2831" fill-opacity="0.92" stroke="#aeb9c5" stroke-width="1.00" />
  <text x="738.12" y="248.42" fill="#f5f7fa" font-size="10.0" text-anchor="middle" font-family="Consolas, 'Courier New', monospace">G00001799-4G12</text>
  <rect x="564.14" y="244.28" width="105.70" height="20.60" rx="6.50" fill="#607080" fill-opacity="0.10" />
  <rect x="565.94" y="246.08" width="102.10" height="17.00" rx="5.00" fill="#1f2831" fill-opacity="0.92" stroke="#aeb9c5" stroke-width="1.00" />
  <text x="616.99" y="257.83" fill="#f5f7fa" font-size="10.0" text-anchor="middle" font-family="Consolas, 'Courier New', monospace">M00001800-6P23</text>
  <rect x="883.09" y="339.30" width="106.50" height="22.90" rx="6.50" fill="#78bddd" fill-opacity="0.10" />
  <rect x="885.29" y="341.50" width="102.10" height="18.50" rx="5.00" fill="#1f2831" fill-opacity="0.92" stroke="#78bddd" stroke-width="1.20" />
  <text x="936.34" y="354.00" fill="#f5f7fa" font-size="10.0" text-anchor="middle" font-family="Consolas, 'Courier New', monospace">M00001801-6Q64</text>
  <rect x="973.90" y="681.41" width="105.70" height="20.60" rx="6.50" fill="#607080" fill-opacity="0.10" />
  <rect x="975.70" y="683.21" width="102.10" height="17.00" rx="5.00" fill="#1f2831" fill-opacity="0.92" stroke="#aeb9c5" stroke-width="1.00" />
  <text x="1026.75" y="694.96" fill="#f5f7fa" font-size="10.0" text-anchor="middle" font-family="Consolas, 'Courier New', monospace">M00001802-9R79</text>
  <rect x="840.86" y="710.02" width="105.70" height="20.60" rx="6.50" fill="#607080" fill-opacity="0.10" />
  <rect x="842.66" y="711.82" width="102.10" height="17.00" rx="5.00" fill="#1f2831" fill-opacity="0.92" stroke="#aeb9c5" stroke-width="1.00" />
  <text x="893.71" y="723.57" fill="#f5f7fa" font-size="10.0" text-anchor="middle" font-family="Consolas, 'Courier New', monospace">M00001803-4S49</text>
  <rect x="1121.80" y="753.54" width="105.70" height="20.60" rx="6.50" fill="#607080" fill-opacity="0.10" />
  <rect x="1123.60" y="755.34" width="102.10" height="17.00" rx="5.00" fill="#1f2831" fill-opacity="0.92" stroke="#aeb9c5" stroke-width="1.00" />
  <text x="1174.65" y="767.09" fill="#f5f7fa" font-size="10.0" text-anchor="middle" font-family="Consolas, 'Courier New', monospace">G00001804-4T24</text>
  <rect x="1079.66" y="610.60" width="113.45" height="25.20" rx="7.50" fill="#d9a441" fill-opacity="0.10" />
  <rect x="1082.26" y="613.20" width="108.25" height="20.00" rx="6.00" fill="#1f2831" fill-opacity="0.92" stroke="#d9a441" stroke-width="1.40" />
  <text x="1136.39" y="626.45" fill="#f5f7fa" font-size="10.0" text-anchor="middle" font-family="Consolas, 'Courier New', monospace">M00001805-10U65</text>
  <rect x="979.95" y="370.01" width="105.70" height="20.60" rx="6.50" fill="#607080" fill-opacity="0.10" />
  <rect x="981.75" y="371.81" width="102.10" height="17.00" rx="5.00" fill="#1f2831" fill-opacity="0.92" stroke="#aeb9c5" stroke-width="1.00" />
  <text x="1032.80" y="383.56" fill="#f5f7fa" font-size="10.0" text-anchor="middle" font-family="Consolas, 'Courier New', monospace">M00001806-7V40</text>
  <rect x="872.81" y="583.18" width="105.70" height="20.60" rx="6.50" fill="#607080" fill-opacity="0.10" />
  <rect x="874.61" y="584.98" width="102.10" height="17.00" rx="5.00" fill="#1f2831" fill-opacity="0.92" stroke="#aeb9c5" stroke-width="1.00" />
  <text x="925.66" y="596.73" fill="#f5f7fa" font-size="10.0" text-anchor="middle" font-family="Consolas, 'Courier New', monospace">M00001807-8W33</text>
  <rect x="1076.37" y="400.31" width="105.70" height="20.60" rx="6.50" fill="#607080" fill-opacity="0.10" />
  <rect x="1078.17" y="402.11" width="102.10" height="17.00" rx="5.00" fill="#1f2831" fill-opacity="0.92" stroke="#aeb9c5" stroke-width="1.00" />
  <text x="1129.22" y="413.86" fill="#f5f7fa" font-size="10.0" text-anchor="middle" font-family="Consolas, 'Courier New', monospace">G00001808-4X12</text>
  <rect x="1172.76" y="430.91" width="105.70" height="20.60" rx="6.50" fill="#607080" fill-opacity="0.10" />
  <rect x="1174.56" y="432.71" width="102.10" height="17.00" rx="5.00" fill="#1f2831" fill-opacity="0.92" stroke="#aeb9c5" stroke-width="1.00" />
  <text x="1225.61" y="444.46" fill="#f5f7fa" font-size="10.0" text-anchor="middle" font-family="Consolas, 'Courier New', monospace">M00001809-7Y53</text>
  <rect x="857.01" y="646.64" width="105.70" height="20.60" rx="6.50" fill="#607080" fill-opacity="0.10" />
  <rect x="858.81" y="648.44" width="102.10" height="17.00" rx="5.00" fill="#1f2831" fill-opacity="0.92" stroke="#aeb9c5" stroke-width="1.00" />
  <text x="909.86" y="660.19" fill="#f5f7fa" font-size="10.0" text-anchor="middle" font-family="Consolas, 'Courier New', monospace">G00001810-7Q47</text>
  <rect x="534.20" y="145.89" width="109.30" height="25.20" rx="7.50" fill="#d9a441" fill-opacity="0.10" />
  <rect x="536.80" y="148.49" width="104.10" height="20.00" rx="6.00" fill="#7f8ea3" fill-opacity="0.92" stroke="#d9a441" stroke-width="1.40" />
  <text x="588.85" y="161.74" fill="#f3f7fb" font-size="10.0" text-anchor="middle" font-family="Consolas, 'Courier New', monospace">T0R01S05-SYS31</text>
  <rect x="406.75" y="151.67" width="109.30" height="25.20" rx="7.50" fill="#d9a441" fill-opacity="0.10" />
  <rect x="409.35" y="154.27" width="104.10" height="20.00" rx="6.00" fill="#7f8ea3" fill-opacity="0.92" stroke="#d9a441" stroke-width="1.40" />
  <text x="461.40" y="167.52" fill="#f3f7fb" font-size="10.0" text-anchor="middle" font-family="Consolas, 'Courier New', monospace">T0R02S01-SYS40</text>
  <rect x="374.99" y="897.40" width="109.30" height="25.20" rx="7.50" fill="#d9a441" fill-opacity="0.10" />
  <rect x="377.59" y="900.00" width="104.10" height="20.00" rx="6.00" fill="#7f8ea3" fill-opacity="0.92" stroke="#d9a441" stroke-width="1.40" />
  <text x="429.64" y="913.25" fill="#f3f7fb" font-size="10.0" text-anchor="middle" font-family="Consolas, 'Courier New', monospace">T0R05S02-SYS27</text>
  <rect x="247.57" y="197.26" width="108.50" height="22.90" rx="6.50" fill="#78bddd" fill-opacity="0.10" />
  <rect x="249.77" y="199.46" width="104.10" height="18.50" rx="5.00" fill="#7f8ea3" fill-opacity="0.92" stroke="#78bddd" stroke-width="1.20" />
  <text x="301.82" y="211.96" fill="#f3f7fb" font-size="10.0" text-anchor="middle" font-family="Consolas, 'Courier New', monospace">T0R06S00-SYS14</text>
  <rect x="534.05" y="896.24" width="108.50" height="22.90" rx="6.50" fill="#78bddd" fill-opacity="0.10" />
  <rect x="536.25" y="898.44" width="104.10" height="18.50" rx="5.00" fill="#7f8ea3" fill-opacity="0.92" stroke="#78bddd" stroke-width="1.20" />
  <text x="588.30" y="910.94" fill="#f3f7fb" font-size="10.0" text-anchor="middle" font-family="Consolas, 'Courier New', monospace">T0R06S04-SYS30</text>
  <rect x="755.32" y="142.55" width="108.50" height="22.90" rx="6.50" fill="#78bddd" fill-opacity="0.10" />
  <rect x="757.52" y="144.75" width="104.10" height="18.50" rx="5.00" fill="#7f8ea3" fill-opacity="0.92" stroke="#78bddd" stroke-width="1.20" />
  <text x="809.57" y="157.25" fill="#f3f7fb" font-size="10.0" text-anchor="middle" font-family="Consolas, 'Courier New', monospace">T0R06S05-SYS16</text>
  <rect x="1000.62" y="254.20" width="108.50" height="22.90" rx="6.50" fill="#78bddd" fill-opacity="0.10" />
  <rect x="1002.82" y="256.40" width="104.10" height="18.50" rx="5.00" fill="#7f8ea3" fill-opacity="0.92" stroke="#78bddd" stroke-width="1.20" />
  <text x="1054.87" y="268.90" fill="#f3f7fb" font-size="10.0" text-anchor="middle" font-family="Consolas, 'Courier New', monospace">T0R06S06-SYS15</text>
  <rect x="1209.83" y="632.05" width="109.30" height="25.20" rx="7.50" fill="#d9a441" fill-opacity="0.10" />
  <rect x="1212.43" y="634.65" width="104.10" height="20.00" rx="6.00" fill="#7f8ea3" fill-opacity="0.92" stroke="#d9a441" stroke-width="1.40" />
  <text x="1264.48" y="647.90" fill="#f3f7fb" font-size="10.0" text-anchor="middle" font-family="Consolas, 'Courier New', monospace">T0R12S05-SYS08</text>
</svg>
